<svg width="16" height="12" viewBox="0 0 16 12" fill="none" xmlns="http://www.w3.org/2000/svg">
<path d="M15.5654 1.07603L5.48583 11.1556C5.42732 11.2142 5.35784 11.2606 5.28137 11.2923C5.20489 11.324 5.12291 11.3403 5.04013 11.3403C4.95734 11.3403 4.87536 11.324 4.79888 11.2923C4.72241 11.2606 4.65293 11.2142 4.59442 11.1556L0.184617 6.74578C0.0664087 6.62757 0 6.46724 0 6.30007C0 6.1329 0.0664087 5.97257 0.184617 5.85436C0.302825 5.73616 0.46315 5.66975 0.630322 5.66975C0.797494 5.66975 0.957819 5.73616 1.07603 5.85436L5.04013 9.81925L14.674 0.184617C14.7922 0.0664084 14.9525 -1.24553e-09 15.1197 0C15.2868 1.24553e-09 15.4472 0.0664084 15.5654 0.184617C15.6836 0.302825 15.75 0.46315 15.75 0.630322C15.75 0.797494 15.6836 0.957819 15.5654 1.07603Z" fill="#4BB4EF"/>
</svg>
