<svg width="103" height="103" viewBox="0 0 103 103" fill="none" xmlns="http://www.w3.org/2000/svg">
<g clip-path="url(#clip0_50_2599)">
<path d="M60.1163 54.9978C59.3921 55.6793 59.0028 57.0425 57.913 56.3964C57.2407 55.9965 56.9552 54.9457 56.2499 53.7838C55.7616 53.6584 54.7968 53.4122 53.655 53.1212C53.1903 55.5303 53.4121 57.7548 53.4875 60.1308C54.3604 60.2136 55.1671 60.1544 55.8654 60.3982C56.3655 60.5733 56.9647 61.0939 57.0873 61.572C57.2902 62.3647 56.6816 62.8948 55.8984 63.0297C55.1412 63.1599 54.3674 63.1859 53.5371 63.2664V78.3127C55.3464 78.2677 56.9482 78.8546 58.6915 78.4665C59.8875 78.1991 61.1967 78.3908 62.4517 78.457C63.2726 78.4996 63.8482 79.0676 63.6783 79.8556C63.5722 80.3502 62.9942 81.027 62.5389 81.1051C61.3901 81.3016 60.1517 81.4057 59.0241 81.1809C57.2171 80.8188 55.4998 81.2897 53.5819 81.3134C53.5182 81.9524 53.4073 82.5582 53.4026 83.164C53.3814 85.6891 53.4404 88.2141 53.3767 90.7368C53.3342 92.4242 53.4852 93.7707 55.0468 95.0084C57.0732 96.6176 56.7901 99.9899 54.877 101.748C52.9096 103.556 49.8807 103.395 48.1138 101.391C46.3469 99.3864 46.5356 96.3455 48.5762 94.6227C49.1116 94.1706 49.7533 93.8488 50.586 93.3116V81.3986C49.5905 81.311 48.8191 81.2897 48.0666 81.1667C47.274 81.0365 46.6913 80.4946 46.8989 79.7018C47.0263 79.2167 47.5948 78.6795 48.0855 78.4996C48.7201 78.2677 49.4749 78.3718 50.159 78.3316C50.6851 76.6656 50.7936 65.9074 50.31 63.238C49.7155 63.1907 49.0951 63.1457 48.4771 63.0913C47.6278 63.0155 46.8918 62.7458 46.8659 61.7352C46.84 60.7295 47.5123 60.3934 48.3969 60.3295C49.0126 60.2846 49.6283 60.2325 50.4138 60.1686V52.9555H43.1717C43.1081 53.8335 43.2024 54.6594 42.9476 55.3599C42.7754 55.8379 42.122 56.4414 41.6809 56.4414C41.2303 56.4414 40.5604 55.8616 40.3811 55.3859C40.1192 54.6854 40.2065 53.8524 40.1334 52.9271H25.1987C25.1397 53.6654 25.102 54.3517 25.0218 55.0333C24.918 55.9255 24.4438 56.5621 23.5097 56.5076C22.7053 56.4627 22.2924 55.8781 22.2665 55.0499C22.2476 54.4227 22.2075 53.7956 22.1651 52.9413C20.0703 52.6124 17.9637 52.8159 15.8737 52.7827C13.7529 52.7496 11.6346 52.7756 9.60114 52.7756C6.54627 56.1929 3.59519 56.775 1.34473 54.4866C-0.558969 52.5508 -0.431584 49.285 1.61837 47.5173C4.16842 45.3188 7.01806 46.1352 9.59643 49.8222H22.1132C22.1792 48.9253 22.099 48.1113 22.342 47.4084C22.5071 46.928 23.1157 46.3103 23.5451 46.2961C24.0027 46.2796 24.7104 46.8097 24.8944 47.2688C25.1727 47.9645 25.0925 48.807 25.1633 49.5667C26.8547 50.0494 36.8072 50.1701 40.006 49.7441C40.499 47.9432 40.3881 46.5186 38.7534 45.0253C33.4009 40.1408 30.714 33.8199 29.9119 26.6991C29.242 20.7591 29.8294 14.8878 31.4523 9.13246C31.6647 8.37517 31.8392 7.55636 32.2709 6.9316C32.5587 6.51746 33.2971 6.14829 33.7854 6.20272C34.5662 6.28791 34.9248 6.99076 34.7643 7.80721C34.6582 8.34678 34.46 8.86741 34.3185 9.39987C34.0614 10.3701 33.8184 11.3428 33.5542 12.3722C35.3918 12.3722 37.0125 12.3533 38.6331 12.3793C39.4799 12.3935 40.2325 12.6586 40.282 13.6762C40.3363 14.8499 39.5177 15.1576 38.5741 15.1316C36.819 15.0842 34.9885 15.5812 33.3608 14.4689C29.9167 31.0795 36.76 43.0327 48.9772 48.5893C49.3924 48.7786 49.8382 48.8946 50.4445 49.1052V46.5801C49.6165 46.4997 48.8026 46.5565 48.0926 46.3056C47.5995 46.1328 47.0216 45.598 46.8966 45.12C46.6913 44.3177 47.2929 43.8042 48.0855 43.6764C48.8451 43.5534 49.6165 43.5131 50.4775 43.4279V30.1897C49.6613 30.1139 48.9017 30.0713 48.1539 29.9648C47.3636 29.8536 46.8376 29.4064 46.8541 28.5568C46.8706 27.6906 47.4368 27.3238 48.2388 27.2623C48.9276 27.2079 49.6165 27.1629 50.4398 27.1037V15.16C49.1447 15.16 47.9109 15.1647 46.6795 15.16C45.5001 15.1529 44.3206 15.1647 43.1434 15.1103C42.3461 15.0724 41.7776 14.6346 41.7705 13.7897C41.7658 12.9496 42.3272 12.4976 43.1151 12.4195C43.896 12.3438 44.6838 12.3604 45.4694 12.3556C47.0971 12.3485 48.7271 12.3533 50.461 12.3533V9.62469C49.9514 9.30048 49.3334 8.9739 48.7908 8.55029C46.5569 6.82038 46.2573 3.74155 48.0902 1.64008C49.8453 -0.37145 52.8836 -0.553671 54.8487 1.23541C56.868 3.07419 57.0354 6.39677 54.91 8.15272C53.556 9.27208 53.0936 10.3725 53.6008 12.1734C54.2707 12.2444 55.0256 12.3036 55.7734 12.4101C56.5519 12.5213 57.1274 12.9189 57.1204 13.7755C57.1157 14.6299 56.5495 15.0251 55.7592 15.115C55.0704 15.1955 54.3769 15.2404 53.5442 15.3138V27.0966C54.3226 27.1534 55.1176 27.0824 55.8159 27.3073C56.3207 27.4705 56.934 27.9604 57.0756 28.4337C57.3091 29.217 56.7288 29.785 55.9456 29.9293C55.186 30.069 54.4005 30.0737 53.5159 30.1494V43.4327C54.1764 43.4966 54.7166 43.5557 55.2591 43.6007C56.1721 43.674 57.0803 43.8515 57.1157 44.9804C57.1487 46.1258 56.2806 46.3506 55.3393 46.3932C54.7991 46.4192 54.2613 46.4713 53.563 46.5257V49.7631H56.7382C56.7878 49.0626 56.8279 48.4426 56.875 47.8225C56.9411 46.9564 57.2383 46.2441 58.2385 46.2228C59.2411 46.1991 59.5831 46.857 59.6209 47.7586C59.6468 48.381 59.6964 49.0011 59.7459 49.7867H73.0765C73.1402 49.0934 73.2157 48.4165 73.2628 47.7373C73.3242 46.8239 73.7252 46.2038 74.6995 46.2275C75.6832 46.2512 76.0158 46.928 76.0582 47.8202C76.0865 48.4402 76.1384 49.0579 76.188 49.8128H87.846C87.9262 48.9656 87.9616 48.1917 88.0843 47.4321C88.214 46.6274 88.759 46.0524 89.5445 46.2583C90.021 46.3837 90.54 46.9706 90.7169 47.4652C90.9457 48.1018 90.849 48.8543 90.8915 49.5288C92.3855 49.991 93.5768 49.6913 94.4653 48.6295C96.395 46.3245 99.4687 46.0737 101.528 48.0545C103.583 50.0329 103.462 53.3602 101.269 55.1658C99.0653 56.9786 96.0081 56.5005 94.2601 54.063C93.9888 53.6844 93.7553 53.2773 93.4911 52.8632H90.9599C90.8915 53.701 90.9575 54.5079 90.7216 55.2131C90.5541 55.7196 90.0493 56.3349 89.5752 56.4674C88.7943 56.6851 88.24 56.0888 88.0937 55.3102C87.9522 54.5529 87.9357 53.7743 87.8555 52.8987H76.1927C76.1384 53.7033 76.2422 54.4535 75.9993 55.0617C75.7728 55.6273 75.2349 56.3514 74.7254 56.4532C73.8243 56.6354 73.3431 55.9065 73.277 54.9978C73.2322 54.3707 73.2086 53.7435 73.1685 52.9437H63.1546C63.9779 53.4051 64.4686 53.7151 64.9876 53.966C78.7309 60.5804 87.2587 71.3315 90.4645 86.2996C90.6131 86.9883 90.8325 87.7361 90.698 88.3893C90.5966 88.8768 90.0399 89.4637 89.5634 89.6151C89.2308 89.7216 88.5231 89.2743 88.2801 88.8862C87.964 88.3845 87.9239 87.6982 87.7941 87.0853C86.1735 79.3728 83.0243 72.4177 77.6576 66.5748C72.7698 61.2549 66.8394 57.5323 60.1116 54.9954L60.1163 54.9978ZM53.5536 98.1724C53.5182 97.0673 52.636 96.2674 51.5343 96.3407C50.5695 96.4046 49.7509 97.2424 49.7321 98.1842C49.7085 99.2042 50.6426 100.158 51.6711 100.163C52.7327 100.167 53.589 99.2634 53.5536 98.1724ZM6.66422 51.1427C6.67601 50.1512 5.69232 49.162 4.70627 49.1714C3.68247 49.1809 2.80729 50.1346 2.84975 51.1995C2.88985 52.2219 3.63057 52.9721 4.64493 53.0099C5.69232 53.0502 6.65478 52.1627 6.66658 51.1427H6.66422ZM98.2279 49.5761C97.1664 49.5951 96.3171 50.5062 96.3572 51.5782C96.3997 52.6715 97.2985 53.4667 98.3954 53.3862C99.3814 53.3128 100.139 52.5082 100.153 51.5214C100.169 50.4494 99.2847 49.5572 98.2279 49.5738V49.5761ZM51.6523 6.64999C52.7492 6.66655 53.5795 5.81934 53.5536 4.71181C53.53 3.76048 52.7209 2.8896 51.7938 2.81624C50.8219 2.74051 49.791 3.67765 49.7391 4.68342C49.6872 5.70812 50.586 6.63342 51.6499 6.64999H51.6523Z" fill="#FFA4CB"/>
<path d="M68.5257 81.2068C67.9029 81.2068 67.2754 81.2447 66.6573 81.1973C65.7657 81.1287 65.1735 80.672 65.216 79.7112C65.2514 78.871 65.7963 78.4498 66.6007 78.4332C67.9241 78.4072 69.2499 78.4048 70.5733 78.4451C71.3918 78.4687 71.8778 78.9491 71.9013 79.7774C71.9273 80.6223 71.4201 81.0885 70.6275 81.1666C69.934 81.2352 69.2286 81.1808 68.528 81.1808V81.2068H68.5257Z" fill="#FFA4CB"/>
<path d="M76.6858 81.1642C75.9828 81.1642 75.2233 81.3251 74.5911 81.1121C74.1027 80.9465 73.5295 80.3667 73.4234 79.8744C73.2559 79.0959 73.8385 78.509 74.643 78.4664C76.0489 78.393 77.4619 78.3977 78.8702 78.4498C79.6841 78.4806 80.1865 79.0296 80.163 79.8389C80.1394 80.6459 79.6015 81.1287 78.8018 81.1902C78.1012 81.2447 77.3935 81.2021 76.6882 81.2021C76.6882 81.1879 76.6882 81.176 76.6882 81.1618L76.6858 81.1642Z" fill="#FFA4CB"/>
<path d="M83.1069 78.4214C84.0057 78.4333 84.6261 78.8096 84.6568 79.7609C84.6898 80.7146 84.0812 81.1595 83.2013 81.1855C82.3167 81.2139 81.6916 80.7951 81.6585 79.8485C81.6255 78.8971 82.2247 78.4853 83.1069 78.4214Z" fill="#FFA4CB"/>
</g>
<defs>
<clipPath id="clip0_50_2599">
<rect width="103" height="103" fill="white"/>
</clipPath>
</defs>
</svg>
