<svg width="44" height="65" viewBox="0 0 44 65" fill="none" xmlns="http://www.w3.org/2000/svg">
<g clip-path="url(#clip0_50_2592)">
<path d="M17.6043 60.9807C18.6979 63.8002 20.145 65.0658 22.3216 64.997C24.8742 64.9178 26.3138 63.4236 26.941 61.1301C27.1035 61.0539 27.1907 60.9792 27.281 60.9762C28.8394 60.9358 29.2244 61.033 29.1643 58.9501C29.1432 58.2104 29.0936 57.5112 29.8743 56.9927C30.1255 56.8253 30.1074 56.1709 30.1119 55.7376C30.1345 53.7966 30.0713 51.8542 30.148 49.9162C30.1781 49.1497 30.3631 48.3354 30.6941 47.6451C31.9726 44.9824 33.6845 42.5962 35.5602 40.3116C43.5717 30.5516 38.9853 15.8578 26.8508 12.3584C19.28 10.1754 11.1888 13.2415 6.96646 19.8921C2.80127 26.4516 3.50675 35.0102 8.74144 40.8226C11.0399 43.3762 12.7652 46.2644 14.0844 49.4067C14.2695 49.8475 14.3176 50.3675 14.3266 50.8531C14.3552 52.5445 14.3371 54.2374 14.3371 55.9288C14.3371 56.4847 14.3778 56.9792 14.9208 57.3692C15.1705 57.5485 15.2412 58.0267 15.3089 58.3838C15.3721 58.72 15.3179 59.0786 15.3254 59.4267C15.357 60.7461 15.4653 60.8581 16.7725 60.9358C17.0207 60.9508 17.2674 60.9612 17.6058 60.9792L17.6043 60.9807ZM23.1323 47.6346C23.1323 46.8352 23.1323 46.2913 23.1323 45.7475C23.1323 41.6638 23.1323 37.5802 23.1323 33.4966C23.1323 33.1978 23.1293 32.899 23.1323 32.6001C23.1368 31.9711 23.0917 31.36 22.2704 31.2808C21.6747 31.224 21.3904 31.6184 21.3453 32.5254C21.3303 32.8228 21.3423 33.1231 21.3423 33.4219C21.3423 37.5548 21.3423 41.6878 21.3423 45.8222C21.3423 46.3616 21.3423 46.901 21.3423 47.6241C19.3733 47.6241 17.5306 47.6495 15.6909 47.5943C15.4503 47.5868 15.1404 47.2118 14.999 46.9383C13.5459 44.1382 11.7709 41.5787 9.70715 39.1715C5.44268 34.1989 4.88612 27.118 8.13976 21.4296C11.3889 15.7517 17.7878 12.6647 24.2846 13.6404C36.0987 15.4155 41.8042 29.0455 34.6487 38.532C32.6014 41.2455 30.5271 43.9186 28.9777 46.9577C28.8273 47.2536 28.4106 47.5913 28.1053 47.6032C26.5138 47.6675 24.9178 47.6331 23.1323 47.6331V47.6346ZM28.2602 49.5083V51.8273C26.2325 51.4687 24.2425 51.642 22.2674 51.6555C20.2533 51.6674 18.2271 51.4119 16.2505 51.8781V49.5083H28.2602ZM28.2226 53.063V55.4626C25.7903 55.7421 17.2583 55.6494 16.2054 55.3431V53.1332C17.7893 53.565 26.9395 53.5142 28.2226 53.0615V53.063ZM27.3201 59.1264C23.9401 59.1757 20.5887 59.1861 17.1109 59.1099C17.1395 58.4689 17.1636 57.9654 17.1846 57.4873C19.7569 57.2168 26.2386 57.3094 27.3201 57.6232V59.1279V59.1264ZM19.6741 61.0688C21.7154 60.8133 23.8679 60.8731 24.8938 61.1958C24.4004 62.5451 23.5234 63.2369 22.3095 63.2369C21.1046 63.2369 20.2232 62.5406 19.6741 61.0673V61.0688Z" fill="#D247AA"/>
<path d="M23.1895 4.46014C23.1895 3.37088 23.1895 2.28012 23.1895 1.19086C23.1895 0.605141 23.0811 0.0747057 22.3606 0.00447909C21.789 -0.0508057 21.422 0.38699 21.413 1.24316C21.3889 3.52179 21.407 5.80042 21.4085 8.07756C21.4085 8.17617 21.4145 8.27628 21.4265 8.3734C21.5017 8.94568 21.8086 9.2998 22.4118 9.25198C22.9563 9.20865 23.1714 8.81867 23.1759 8.32111C23.1879 7.03312 23.1804 5.74513 23.1804 4.45864C23.1834 4.45864 23.1864 4.45864 23.1895 4.45864V4.46014Z" fill="#D247AA"/>
<path d="M14.2944 12.1343C15.0119 12.1059 15.424 11.4858 15.2029 10.9479C15.1292 10.7686 14.9998 10.6012 14.8615 10.4623C13.3783 8.98153 11.8921 7.50378 10.3984 6.03351C10.26 5.89754 10.0585 5.71823 9.90204 5.73318C9.58314 5.76306 9.20408 5.83627 8.98747 6.03799C8.82351 6.1904 8.80094 6.58486 8.85209 6.84485C8.89421 7.063 9.11382 7.26173 9.28831 7.43505C10.6993 8.84706 12.1117 10.2576 13.5423 11.6487C13.7799 11.8788 14.1093 12.0147 14.2944 12.1328V12.1343Z" fill="#D247AA"/>
<path d="M5.9836 19.0314C6.77031 19.0568 7.20804 18.368 6.87861 17.7823C6.74022 17.5358 6.49052 17.334 6.25586 17.1622C4.73359 16.0416 3.2038 14.9314 1.671 13.8242C1.47093 13.6793 1.24981 13.4746 1.0317 13.4656C0.715815 13.4536 0.231455 13.4985 0.114125 13.6942C-0.0513391 13.9706 -0.0137348 14.4204 0.065989 14.767C0.111116 14.9613 0.405943 15.1092 0.606004 15.2556C2.13279 16.3703 3.66108 17.482 5.19839 18.5832C5.47517 18.7819 5.79106 18.9239 5.98209 19.0329L5.9836 19.0314Z" fill="#D247AA"/>
<path d="M42.9815 13.4088C42.8311 13.485 42.5483 13.5866 42.3137 13.7554C40.6996 14.9134 39.0916 16.0819 37.4911 17.2578C37.2971 17.3998 37.0489 17.594 37.0143 17.7972C36.9616 18.105 36.9646 18.5368 37.1451 18.7356C37.3226 18.9313 37.7498 18.9462 38.0687 18.9507C38.2372 18.9537 38.4177 18.7774 38.5772 18.6623C40.1897 17.4999 41.8037 16.3404 43.4012 15.16C43.6283 14.9926 43.8434 14.7431 43.9412 14.4846C44.1623 13.9064 43.7291 13.3699 42.9815 13.4073V13.4088Z" fill="#D247AA"/>
<path d="M34.8452 5.6734C34.6722 5.78546 34.3533 5.9304 34.1171 6.1605C32.6926 7.5486 31.2877 8.95612 29.8782 10.3607C29.7383 10.4996 29.5277 10.664 29.5232 10.8209C29.5157 11.1825 29.4946 11.677 29.7067 11.8698C29.9113 12.0551 30.4243 12.0058 30.7597 11.9116C31.0169 11.8399 31.217 11.5455 31.4276 11.3364C32.6294 10.1485 33.8343 8.96061 35.0242 7.75928C35.2994 7.48136 35.5973 7.18402 35.7537 6.83737C36.0049 6.28004 35.5792 5.68237 34.8437 5.6734H34.8452Z" fill="#D247AA"/>
</g>
<defs>
<clipPath id="clip0_50_2592">
<rect width="44" height="65" fill="white" transform="matrix(-1 0 0 1 44 0)"/>
</clipPath>
</defs>
</svg>
