<svg width="85" height="62" viewBox="0 0 85 62" fill="none" xmlns="http://www.w3.org/2000/svg">
<g clip-path="url(#clip0_50_2604)">
<path d="M42.3899 28.7187C40.5019 30.0933 38.6881 31.4428 36.843 32.7499C35.3552 33.8049 34.7675 33.5931 34.2579 31.8278C33.6917 29.8661 33.1743 27.891 32.5574 25.6328C31.9911 26.2508 31.585 26.7032 31.1711 27.1479C30.6654 27.6907 30.0504 27.8871 29.449 27.3923C28.8418 26.8937 28.9707 26.2835 29.4022 25.6829C30.1519 24.6394 30.8704 23.5768 31.71 22.3659C30.6732 19.2414 29.6443 16.0111 28.5002 12.8212C28.3147 12.3034 27.6626 11.8837 27.1354 11.5622C24.2048 9.77569 21.239 8.0431 18.2986 6.272C17.6035 5.85425 16.6039 5.53661 16.9104 4.45662C17.2072 3.40936 18.242 3.57492 19.0483 3.52872C27.1002 3.07825 35.1522 2.65857 43.2041 2.21965C53.8527 1.63827 64.5034 1.04918 75.1521 0.462026C77.7488 0.319568 80.3456 0.163634 82.9443 0.0250264C83.3309 0.00385022 83.7409 -0.0327268 84.106 0.0616034C84.9826 0.290691 85.2775 1.15699 84.7093 1.85388C84.3891 2.2466 83.9557 2.55654 83.5554 2.87996C72.114 12.08 60.6707 21.2782 49.2254 30.4744C47.7045 31.6969 47.6967 31.6892 45.9863 30.7324C44.8031 30.0702 43.6219 29.4079 42.3919 28.7168L42.3899 28.7187ZM35.4314 22.0714C39.6643 24.4797 43.5282 26.6762 47.4663 28.917C57.0021 21.2513 66.4773 13.676 75.9037 6.04291C75.8296 5.9351 75.7554 5.8273 75.6792 5.71949C62.4142 11.1079 49.1512 16.4962 35.4294 22.0714H35.4314ZM70.636 5.27672C70.5755 5.14004 70.515 5.00335 70.4544 4.86667C57.3359 7.36931 44.2154 9.87195 30.8861 12.415C31.7959 15.1698 32.6296 17.6956 33.5102 20.3619C46.0449 15.268 58.3414 10.2724 70.636 5.27672ZM22.5901 5.64056C22.551 5.78495 22.512 5.9274 22.4729 6.07179C24.5015 7.28076 26.5497 8.4647 28.5529 9.71602C29.33 10.2011 30.0543 10.2435 30.9427 10.0722C39.4886 8.41849 48.0442 6.8168 56.5959 5.18816C59.1283 4.70689 61.6528 4.19096 64.1812 3.69043C64.1656 3.5807 64.15 3.47097 64.1344 3.35931C50.2856 4.11973 36.4388 4.88015 22.5901 5.64056ZM36.2592 30.3301C37.6533 29.279 38.7935 28.4184 40.1348 27.4077C38.2585 26.3566 36.6556 25.4595 34.6601 24.3411C35.2478 26.5395 35.7164 28.2952 36.2592 30.3301Z" fill="black"/>
<path d="M5.88032 32.6421C5.55621 33.1061 5.27506 33.5219 4.98024 33.9281C4.54484 34.5249 3.98644 34.7925 3.31284 34.3478C2.75249 33.9762 2.63924 33.4276 2.97311 32.8308C3.47489 31.9356 3.92982 31.0058 4.5175 30.1684C5.0681 29.381 5.89984 29.3964 6.68863 30.0066C7.28999 30.4706 7.92453 30.9076 8.59032 31.2734C9.24439 31.6334 9.62707 32.1012 9.36154 32.8212C9.07648 33.5931 8.39703 33.6066 7.73124 33.391C7.12598 33.1946 6.54805 32.9174 5.88227 32.646L5.88032 32.6421Z" fill="black"/>
<path d="M5.23424 52.5766C4.89061 53.0059 4.71489 53.4448 4.42983 53.5315C4.06668 53.6431 3.37941 53.6123 3.24274 53.3929C2.50667 52.2224 1.85064 50.9942 1.29224 49.7332C1.18876 49.4984 1.58316 48.9131 1.8936 48.6841C2.12203 48.5166 2.8093 48.53 2.92059 48.6995C3.74062 49.9527 4.46888 51.2656 5.23424 52.5766Z" fill="black"/>
<path d="M-6.73113e-07 44.2736C0.0370959 43.723 -0.066384 43.2013 0.134719 42.8509C0.355346 42.4659 0.861031 42.0097 1.23981 42.0135C1.59515 42.0154 2.18284 42.5314 2.25703 42.8991C2.47961 44.0233 2.54404 45.1822 2.5909 46.3315C2.61824 46.9899 2.18089 47.5097 1.53463 47.4539C1.12852 47.4192 0.554496 47.0015 0.421729 46.628C0.146433 45.856 0.115194 44.9994 -0.00195312 44.2717L-6.73113e-07 44.2736Z" fill="black"/>
<path d="M11.137 25.3922C10.2018 26.63 9.36224 27.8274 8.40944 28.9267C8.24739 29.1134 7.48007 29.0364 7.21063 28.8189C6.9412 28.5994 6.72057 27.9333 6.86505 27.6715C7.48398 26.553 8.19857 25.4769 8.98932 24.47C9.18456 24.2236 9.86011 24.1428 10.2076 24.2718C10.5435 24.395 10.7407 24.8859 11.137 25.3922Z" fill="black"/>
<path d="M7.29661 17.2509C6.41019 17.2509 5.52183 17.2258 4.63737 17.2586C3.97744 17.2836 3.3507 17.0949 3.33899 16.4385C3.33118 15.988 3.70995 15.2757 4.09849 15.1198C5.39492 14.5981 6.75578 14.6558 8.03268 15.3123C8.59889 15.603 9.01281 16.1035 8.66528 16.6984C8.42903 17.1026 7.87063 17.324 7.45671 17.6263C7.40204 17.5011 7.34932 17.3741 7.29465 17.2489L7.29661 17.2509Z" fill="black"/>
<path d="M24.8719 61.8979C24.5634 61.5899 24.0226 61.28 23.8644 60.8353C23.6477 60.225 24.0636 59.7341 24.7294 59.5801C25.7993 59.3318 26.8692 59.0796 27.9509 58.8871C28.5933 58.7735 29.1146 59.0218 29.2805 59.6995C29.4426 60.3598 29.1497 60.8699 28.5152 61.049C27.3984 61.3608 26.2542 61.5822 24.8738 61.8979H24.8719Z" fill="black"/>
<path d="M9.74421 57.3393C9.68759 58.1498 8.95738 58.762 8.37945 58.3943C7.20798 57.6512 6.13804 56.7291 5.14033 55.7665C4.94118 55.574 5.10909 54.7635 5.36877 54.4401C5.5523 54.2091 6.31376 54.1244 6.57343 54.3092C7.61409 55.0504 8.57274 55.909 9.52944 56.7579C9.69345 56.9042 9.70516 57.218 9.74617 57.3374L9.74421 57.3393Z" fill="black"/>
<path d="M22.8206 32.284C22.6195 32.4746 22.3286 32.9463 21.9166 33.1003C20.8896 33.4834 19.8158 33.7529 18.7439 34.0032C18.0956 34.1533 17.5587 33.8626 17.3752 33.2235C17.1565 32.4631 17.5782 32.0184 18.3026 31.8143C19.3003 31.5332 20.2902 31.2079 21.3016 30.9865C22.1821 30.794 22.8128 31.2618 22.8225 32.286L22.8206 32.284Z" fill="black"/>
<path d="M13.462 32.2532C13.9794 32.2532 14.4949 32.2417 15.0123 32.2571C15.6996 32.2782 16.1916 32.669 16.1135 33.3082C16.0627 33.7144 15.5883 34.3805 15.2837 34.3939C13.9463 34.4478 12.5893 34.3728 11.2636 34.1803C10.9844 34.1398 10.6329 33.4083 10.6408 33.004C10.6466 32.7229 11.1777 32.2917 11.5369 32.2147C12.152 32.0838 12.8177 32.1781 13.462 32.1781C13.462 32.2032 13.462 32.2282 13.462 32.2551V32.2532Z" fill="black"/>
<path d="M24.9916 32.0299C24.4859 31.643 23.988 31.4466 23.8631 31.1136C23.7342 30.7709 23.8201 30.1029 24.072 29.9142C25.1009 29.1442 26.2021 28.4492 27.3443 27.8505C27.6118 27.71 28.2834 27.9352 28.506 28.2047C28.7247 28.4704 28.8008 29.2289 28.6134 29.3829C27.481 30.3108 26.2568 31.1251 24.9916 32.028V32.0299Z" fill="black"/>
<path d="M0.374611 20.2733C0.440994 19.9538 0.554236 19.1933 0.765101 18.4618C0.977918 17.7264 1.43089 17.1469 2.31535 17.4338C3.06509 17.6763 3.151 18.3039 3.02018 19.0104C2.87961 19.7593 2.77808 20.5159 2.70389 21.2744C2.5965 22.3678 2.17282 22.9704 1.45822 22.8568C0.579618 22.7182 0.358991 22.0714 0.372658 21.2956C0.376563 21.103 0.372658 20.9125 0.372658 20.2733H0.374611Z" fill="black"/>
<path d="M11.7832 21.311C11.7832 21.5015 11.7949 21.6921 11.7813 21.8827C11.7344 22.5141 11.4845 23.0031 10.7719 23.057C10.0826 23.1109 9.69605 22.7336 9.55352 22.0925C9.3368 21.105 9.12008 20.1174 8.91507 19.1279C8.78426 18.4984 8.95412 17.9516 9.59843 17.7303C10.2349 17.5108 10.7875 17.7957 11.0179 18.3906C11.381 19.3262 11.6387 20.3041 11.9414 21.2628C11.8887 21.2782 11.8359 21.2936 11.7832 21.309V21.311Z" fill="black"/>
<path d="M3.63573 36.5886C3.25305 37.9438 2.99142 38.9988 2.65169 40.0287C2.44278 40.6602 1.88047 40.999 1.27912 40.7045C0.9062 40.5216 0.435659 39.9229 0.494233 39.5956C0.70705 38.4136 1.08192 37.2508 1.48217 36.1111C1.69694 35.499 2.30416 35.1544 2.87818 35.497C3.28429 35.7377 3.47172 36.3364 3.63573 36.5905V36.5886Z" fill="black"/>
<path d="M14.675 61.4244C13.3395 60.9066 12.1837 60.5138 11.0786 60.0075C10.4792 59.7322 10.2605 59.0758 10.6549 58.5618C10.9009 58.2403 11.5608 57.9669 11.9415 58.0574C13.0623 58.3211 14.1713 58.7081 15.2119 59.199C15.5516 59.3607 15.9167 60.0749 15.8113 60.3906C15.6727 60.8065 15.085 61.0779 14.675 61.4263V61.4244Z" fill="black"/>
<path d="M0.808594 25.1053C1.17175 24.7107 1.44314 24.1543 1.81215 24.0831C2.19483 24.008 2.90553 24.2891 3.06368 24.6105C3.59474 25.6886 4.01842 26.834 4.31325 27.9968C4.39915 28.3318 3.99695 29.0325 3.66503 29.1557C3.31749 29.2828 2.53456 29.0441 2.37251 28.7418C1.77701 27.633 1.35919 26.4298 0.810546 25.1072L0.808594 25.1053Z" fill="black"/>
<path d="M19.8601 59.7573C20.438 59.7881 21.0218 59.7784 21.5919 59.8593C22.2382 59.9498 22.7419 60.356 22.5701 61.0105C22.4686 61.4013 21.9687 61.9461 21.6192 61.9692C20.4107 62.0443 19.1826 61.9692 17.9721 61.8537C17.3024 61.7882 16.9138 61.2242 17.1091 60.6197C17.234 60.2347 17.73 59.8304 18.1419 59.7072C18.671 59.5513 19.2841 59.6687 19.862 59.6687C19.862 59.6976 19.862 59.7284 19.862 59.7573H19.8601Z" fill="black"/>
<path d="M33.4303 56.7117C33.7954 57.0063 34.2738 57.2084 34.3929 57.5376C34.5139 57.8726 34.4221 58.5406 34.18 58.6965C33.3912 59.2067 32.5146 59.6225 31.6165 59.9132C31.3334 60.0056 30.6539 59.6668 30.5602 59.3915C30.4274 59.0045 30.5094 58.2711 30.7867 58.0747C31.5501 57.5318 32.4599 57.1911 33.4283 56.7137L33.4303 56.7117Z" fill="black"/>
</g>
<defs>
<clipPath id="clip0_50_2604">
<rect width="85" height="62" fill="white"/>
</clipPath>
</defs>
</svg>
