<svg width="53" height="58" viewBox="0 0 53 58" fill="none" xmlns="http://www.w3.org/2000/svg">
<g clip-path="url(#clip0_50_2587)">
<path d="M6.15575 51.8236C6.15575 53.5139 6.16847 55.1118 6.15113 56.7097C6.14073 57.6624 5.27179 58.2567 4.44328 57.8913C3.91174 57.6566 3.68526 57.2219 3.68873 56.6415C3.69797 55.2355 3.6714 53.8284 3.70144 52.4225C3.71184 51.9299 3.5466 51.7866 3.07631 51.812C2.46157 51.8455 1.84453 51.8317 1.22864 51.8143C0.494887 51.7935 0.0153488 51.3183 0.000327084 50.6304C-0.0146946 49.932 0.48911 49.3863 1.22055 49.3655C2.02363 49.3412 2.82787 49.3597 3.69797 49.3597C3.69797 49.0753 3.69797 48.8486 3.69797 48.6232C3.69451 33.8665 3.6922 19.111 3.68989 4.3543C3.68989 3.7762 3.68989 3.19809 3.70144 2.62115C3.71646 1.77712 4.20062 1.2522 4.94015 1.2626C5.65888 1.27301 6.15922 1.8303 6.15922 2.65352C6.16269 7.75818 6.15922 12.864 6.15922 17.9686C6.15922 28.2751 6.16038 38.5815 6.16153 48.8879C6.16153 49.0198 6.17424 49.1516 6.18349 49.3285C6.38801 49.3389 6.57405 49.3562 6.76009 49.3562C21.1994 49.3585 35.6399 49.3608 50.0792 49.362C51.1665 49.362 51.7512 49.784 51.7709 50.5806C51.7905 51.3842 51.1792 51.827 50.0561 51.827C35.6549 51.8259 21.2549 51.8236 6.85369 51.8224C6.64569 51.8224 6.4377 51.8224 6.15575 51.8224V51.8236Z" fill="black"/>
<path d="M39.7153 45.6655C31.0097 45.2458 23.6548 41.8974 17.7802 35.4377C13.5013 30.7331 10.973 25.1787 10.1157 18.8785C9.94001 17.5847 9.91112 16.2689 9.85797 14.9624C9.82562 14.1462 10.3109 13.6339 11.0366 13.6131C11.7946 13.5912 12.2938 14.0791 12.3077 14.9324C12.3851 19.5722 13.3973 23.9855 15.6194 28.0715C19.4025 35.0296 25.0853 39.7018 32.6667 42.0304C35.1661 42.7981 37.7348 43.1357 40.3439 43.1947C40.6097 43.2005 40.8916 43.2097 41.1378 43.2976C41.6751 43.4907 41.9686 44.0769 41.8715 44.6573C41.7825 45.188 41.3169 45.6216 40.7553 45.6621C40.4109 45.6863 40.0631 45.6667 39.7165 45.6667L39.7153 45.6655Z" fill="black"/>
<path d="M46.8227 17.0715C45.5839 18.9329 44.4007 20.7112 43.2174 22.4883C43.1423 22.6004 43.0684 22.7126 42.9898 22.8224C42.501 23.5046 41.8043 23.6676 41.1965 23.2433C40.6198 22.8398 40.5043 22.1195 40.9388 21.4546C41.8355 20.0857 42.7448 18.726 43.6508 17.3628C44.1303 16.6413 44.5971 15.9118 45.1009 15.2065C45.3043 14.9221 45.2777 14.7232 45.0917 14.4457C43.7374 12.4339 42.3959 10.4129 41.0566 8.39065C40.9203 8.18484 40.7793 7.96401 40.7146 7.73045C40.5517 7.13848 40.8579 6.53956 41.4068 6.29791C41.9706 6.04933 42.5796 6.23316 42.9655 6.80664C43.9119 8.21144 44.8444 9.62548 45.7827 11.0361C46.1109 11.5286 46.4413 12.02 46.8203 12.5865C47.0018 12.3264 47.1439 12.1321 47.2779 11.931C48.3988 10.2498 49.5069 8.5583 50.652 6.89336C50.8438 6.61471 51.1697 6.35688 51.4875 6.25166C51.9762 6.0898 52.4465 6.26554 52.7551 6.70952C53.0717 7.16507 53.0821 7.65646 52.7828 8.11894C52.1658 9.07165 51.5256 10.0105 50.8947 10.9551C50.1251 12.1079 49.3706 13.271 48.579 14.4076C48.3514 14.7348 48.3791 14.9568 48.5906 15.2701C49.9714 17.3096 51.3384 19.3607 52.6996 21.4142C53.2369 22.2247 52.9746 23.108 52.1357 23.3994C51.5614 23.5982 51.0426 23.3867 50.6243 22.76C49.5011 21.08 48.3849 19.3943 47.2652 17.712C47.1393 17.5224 47.0075 17.3374 46.8238 17.0715H46.8227Z" fill="black"/>
<path d="M33.2881 7.42164C34.5961 7.42164 35.8418 7.42164 37.0874 7.42164C37.4341 7.42164 37.7807 7.40892 38.1262 7.42048C38.8843 7.44477 39.4135 7.93153 39.4366 8.60907C39.4609 9.31782 38.9501 9.87974 38.169 9.89708C36.8228 9.9283 35.4755 9.90633 34.1282 9.90749C33.8809 9.90749 33.6324 9.90749 33.3205 9.90749C33.3077 10.1526 33.2893 10.3561 33.2893 10.5584C33.2846 14.2941 33.2835 18.0298 33.28 21.7656C33.28 21.9771 33.2858 22.191 33.2534 22.3992C33.1564 23.0258 32.6803 23.449 32.0771 23.4675C31.4716 23.486 30.9748 23.0963 30.8361 22.4732C30.7945 22.2882 30.7933 22.0916 30.7933 21.8997C30.7864 16.277 30.7783 10.6544 30.7783 5.03176C30.7783 2.31005 32.9264 0.12019 35.732 0.0300056C37.3474 -0.0220237 38.9651 0.00688147 40.5817 0.0219122C41.3721 0.0288494 41.8909 0.543362 41.8932 1.26021C41.8955 1.97243 41.3859 2.4881 40.584 2.49967C39.0067 2.52279 37.4283 2.49157 35.8499 2.51354C34.5869 2.53088 33.5712 3.30901 33.3586 4.42822C33.2731 4.87683 33.2997 5.34856 33.2916 5.80989C33.2812 6.3244 33.2893 6.83776 33.2893 7.42164H33.2881Z" fill="black"/>
</g>
<defs>
<clipPath id="clip0_50_2587">
<rect width="53" height="58" fill="white"/>
</clipPath>
</defs>
</svg>
