<svg width="55" height="62" viewBox="0 0 55 62" fill="none" xmlns="http://www.w3.org/2000/svg">
<g clip-path="url(#clip0_50_2580)">
<path d="M0.457863 40.9032C1.15941 41.276 1.80467 41.6183 2.46802 41.9729C2.48411 42.0093 2.54039 42.0721 2.53436 42.1268C2.19062 45.2405 3.2942 46.6889 6.52252 47.1954C9.9619 47.7363 13.2968 47.0738 16.5613 46.2372C16.1854 43.5023 15.8336 40.8445 15.4376 38.1947C15.4014 37.9516 15.1079 37.7166 14.8848 37.5383C13.0274 36.0494 11.1861 34.5422 9.28448 33.116C8.4965 32.5245 7.57182 32.1152 6.70946 31.623L6.97681 31.39C6.83409 31.0395 6.75972 30.6364 6.54061 30.3447C4.95258 28.2277 3.254 26.1897 1.76246 24.0059C1.079 23.0052 0.654859 21.7735 0.329213 20.5863C-0.816579 16.4091 1.32223 13.2651 5.79886 12.4649C9.18397 11.8591 12.5249 12.2623 15.8477 12.9774C16.3301 13.0807 16.8125 13.18 17.3111 13.2853C17.6689 12.1731 18.0046 11.1298 18.3443 10.0785C19.076 10.4289 19.7333 10.7409 20.5112 11.1136C20.2499 12.0111 19.9745 12.9592 19.7192 13.8363C22.252 14.8857 24.7145 15.9108 27.185 16.9156C27.3739 16.9925 27.6473 16.9925 27.8383 16.9156C30.3088 15.9108 32.7712 14.8837 35.296 13.8384C34.4557 10.8118 33.4044 7.80549 31.4907 5.19422C30.3309 3.61206 29.0142 2.23248 26.7769 2.50596C26.6121 2.52622 26.3909 2.31756 26.2422 2.16968C25.7939 1.724 25.3678 1.25604 24.8693 0.727299C26.21 -0.0688456 27.6352 -0.198498 29.1248 0.28162C30.747 0.80428 31.9551 1.90835 32.9903 3.21905C35.111 5.90123 36.3191 9.02908 37.3202 12.2582C37.4287 12.6087 37.5252 12.9632 37.6378 13.3481C39.4248 13.0159 41.1717 12.6148 42.9406 12.3798C45.3025 12.0658 47.6785 12.0253 50.0103 12.6695C53.9965 13.7715 55.7554 16.8528 54.6417 20.8639C53.6588 24.403 51.4536 27.1966 49.0776 29.8706C48.7459 30.2454 48.3198 30.5331 47.8333 30.9504C48.2896 31.4265 48.6354 31.7729 48.963 32.1315C51.1461 34.5239 53.114 37.0724 54.304 40.1314C55.1523 42.3132 55.3795 44.5092 54.1352 46.6484C54.0729 46.7558 53.9884 46.849 53.9281 46.932C53.4839 46.3162 53.0376 45.7328 52.6336 45.121C52.5009 44.9184 52.3843 44.6267 52.4205 44.4018C52.6738 42.8946 52.2436 41.5272 51.6044 40.2104C50.2516 37.4249 48.2916 35.1013 46.191 32.9722C44.0422 34.6435 41.9456 36.2601 39.8751 37.907C39.6419 38.0914 39.4469 38.4338 39.4007 38.7275C39.0127 41.2537 38.665 43.7839 38.281 46.4803C39.7585 46.7842 41.3124 47.1022 42.9104 47.4304C42.8743 48.1698 42.8381 48.9194 42.7939 49.8371C41.0671 49.4765 39.3525 49.1179 37.5634 48.7451C37.1614 49.9302 36.7835 51.1417 36.3433 52.3288C35.4588 54.7031 34.4195 57.0165 32.7209 58.9167C31.8847 59.8506 30.8977 60.7278 29.8183 61.3437C27.6714 62.5693 25.016 62.0223 23.3114 60.191C23.9446 59.7088 24.5738 59.2287 25.205 58.7486C27.7016 59.9783 29.1549 59.6825 30.9801 57.4967C33.2516 54.776 34.3492 51.4982 35.3462 48.0422C34.3894 47.6917 33.4547 47.3716 32.536 47.005C31.0766 46.4236 29.6374 45.7935 28.1719 45.2304C27.8322 45.1007 27.3719 45.0278 27.0523 45.1534C24.63 46.1055 22.2279 47.1123 19.7534 48.1293C19.8258 48.5345 19.9102 49.0166 19.9946 49.4866C19.2348 49.7743 18.5232 50.0417 17.7473 50.3354C17.5824 49.8877 17.4015 49.3995 17.2186 48.8991C15.4919 49.1949 13.7953 49.5534 12.0826 49.7621C9.64832 50.0599 7.20597 50.0964 4.81187 49.4258C0.381477 48.186 -0.750243 44.651 0.465904 40.9052L0.457863 40.9032ZM37.4328 31.076C37.3463 29.4209 37.3001 27.7699 37.1433 26.131C37.1031 25.7137 36.8076 25.1627 36.4619 24.958C33.7079 23.3111 30.9279 21.7107 28.1197 20.1629C27.7679 19.9685 27.1186 19.9989 26.7588 20.1994C23.9587 21.7633 21.1907 23.386 18.4307 25.0249C18.1674 25.1809 17.8799 25.5759 17.8779 25.8636C17.8397 29.3257 17.8417 32.7898 17.8719 36.252C17.8739 36.5234 18.099 36.9043 18.3342 37.042C21.1826 38.7234 24.0451 40.3826 26.9277 42.0053C27.2131 42.1653 27.7378 42.1815 28.0192 42.0255C30.8776 40.4292 33.718 38.7984 36.5362 37.1291C36.8377 36.9509 37.1091 36.4748 37.1413 36.1142C37.288 34.4389 37.3443 32.7554 37.4348 31.078L37.4328 31.076ZM16.6899 15.7284C15.4557 15.4732 14.1953 15.1551 12.9168 14.9607C10.3318 14.5677 7.72861 14.3509 5.18576 15.1957C3.07911 15.8966 2.16851 17.3876 2.59064 19.5552C3.38667 23.6311 6.22099 26.3964 8.78998 29.3095C11.0152 27.5815 13.156 25.9304 15.2768 24.2551C15.4577 24.1113 15.5803 23.8135 15.6145 23.5704C15.9783 21.0138 16.318 18.4552 16.6879 15.7284H16.6899ZM46.1227 29.2426C46.4644 28.878 46.8644 28.4769 47.2363 28.0535C49.2605 25.7542 51.1581 23.3658 52.0366 20.3473C52.8969 17.3937 51.8235 15.54 48.8263 14.9323C45.2362 14.2071 41.7425 14.9262 38.3192 15.7305C38.6891 18.4552 39.0349 21.0786 39.4188 23.696C39.457 23.9492 39.7002 24.2207 39.9173 24.3928C41.9355 25.9892 43.9698 27.5653 46.1207 29.2426H46.1227ZM15.2325 27.2715C13.6003 28.6106 12.1691 29.7856 10.5971 31.074C12.1992 32.3705 13.6465 33.5434 15.2325 34.8258V27.2715ZM39.8108 27.3586V34.8359C41.4129 33.5171 42.8562 32.328 44.404 31.0537C42.8039 29.7653 41.3787 28.6187 39.8108 27.3586ZM36.8418 39.864C34.5824 41.1929 32.5682 42.378 30.3751 43.6705C32.3129 44.4038 34.0396 45.0541 35.901 45.7591C36.2226 43.7475 36.5121 41.9323 36.8438 39.866L36.8418 39.864ZM35.9131 16.3929C34.0155 17.1344 32.2606 17.8211 30.3952 18.5504C32.5702 19.7983 34.6025 20.9652 36.8297 22.2435C36.5181 20.248 36.2347 18.443 35.9131 16.3909V16.3929ZM24.616 43.5611C22.4329 42.3152 20.4027 41.1544 18.1674 39.8782C18.5051 41.9465 18.8026 43.7779 19.1202 45.7267C21.0459 44.969 22.7727 44.2884 24.616 43.5611ZM18.1835 22.0834C20.4369 20.8193 22.443 19.695 24.6401 18.4613C22.7103 17.7279 20.9856 17.0716 19.1202 16.3625C18.8006 18.3154 18.5111 20.09 18.1855 22.0834H18.1835Z" fill="#E9A664"/>
<path d="M20.9516 52.0533C22.6421 52.0533 24.0251 53.4187 24.0472 55.1062C24.0693 56.822 22.6421 58.2401 20.9134 58.2199C19.2248 58.1996 17.868 56.8139 17.876 55.1183C17.8841 53.4288 19.265 52.0533 20.9516 52.0533Z" fill="#E9A664"/>
<path d="M51.633 48.8079C51.627 50.5157 50.2742 51.8851 48.5876 51.8932C46.8609 51.9013 45.486 50.4873 45.5161 48.733C45.5443 47.0414 46.9534 45.6517 48.6118 45.6801C50.2842 45.7084 51.6411 47.1123 51.635 48.8079H51.633Z" fill="#E9A664"/>
<path d="M24.918 5.58918C24.908 7.30302 23.5652 8.64613 21.8626 8.64816C20.1338 8.64816 18.7448 7.22604 18.785 5.49397C18.8252 3.80241 20.2263 2.45119 21.9068 2.48158C23.6114 2.51197 24.9281 3.87332 24.918 5.58918Z" fill="#E9A664"/>
<path d="M4.01033 39.5824C2.31375 39.5844 0.954885 38.2372 0.934784 36.5335C0.914682 34.7934 2.31777 33.3854 4.0445 33.4097C5.73706 33.434 7.06577 34.8035 7.05974 36.5173C7.05371 38.2291 5.71093 39.5783 4.01033 39.5824Z" fill="#E9A664"/>
<path d="M30.5646 31.0557C30.5686 32.7777 29.2459 34.1289 27.5413 34.1451C25.8367 34.1613 24.4738 32.8283 24.4476 31.1246C24.4215 29.3621 25.7784 27.9785 27.5232 27.9846C29.2298 27.9907 30.5585 29.3338 30.5625 31.0557H30.5646Z" fill="#E9A664"/>
</g>
<defs>
<clipPath id="clip0_50_2580">
<rect width="55" height="62" fill="white"/>
</clipPath>
</defs>
</svg>
