<svg width="120" height="119" viewBox="0 0 120 119" fill="none" xmlns="http://www.w3.org/2000/svg">
<path d="M119.261 60.2618C119.261 52.3543 117.727 44.5239 114.749 37.2175C111.77 29.9118 107.404 23.2731 101.9 17.6818C96.3966 12.0897 89.8622 7.65468 82.6714 4.6286C75.4805 1.60251 67.7732 0.0450744 59.9897 0.0451134C52.2061 0.0451523 44.4988 1.60267 37.3073 4.62883C30.1165 7.65498 23.5821 12.0901 18.0786 17.6822C12.5751 23.2736 8.20922 29.9123 5.23046 37.2181C2.2517 44.5245 0.719011 52.3549 0.719051 60.2624L59.99 60.2621L119.261 60.2618Z" fill="#53BF9D"/>
<path d="M119.261 118.729C119.261 110.821 117.727 102.99 114.749 95.684C111.77 88.3783 107.404 81.7396 101.9 76.1483C96.3966 70.5562 89.8622 66.1205 82.6714 63.0944C75.4805 60.0683 67.7732 58.5109 59.9897 58.5109C52.2061 58.511 44.4988 60.0685 37.3073 63.0946C30.1165 66.1208 23.5821 70.5566 18.0786 76.1487C12.5751 81.7401 8.20922 88.3788 5.23046 95.6846C2.2517 102.991 0.719011 110.821 0.719051 118.73L59.99 118.729L119.261 118.729Z" fill="#53BF9D"/>
</svg>
